<svg xmlns="http://www.w3.org/2000/svg" width="48" height="48" viewBox="0 0 48 48"><defs><style>.a{fill:#000438;fill-rule:evenodd;}</style></defs><g transform="translate(0.007)"><path class="a" d="M19.545,3.057Q18.774,3,18,3V0c.586,0,1.176.022,1.763.065l-.218,2.991Zm6.011,1.349a21.007,21.007,0,0,0-2.954-.9L23.259.581a23.478,23.478,0,0,1,3.377,1.027l-1.08,2.8Zm4.11,2.129q-.643-.429-1.317-.811l1.478-2.61a24.072,24.072,0,0,1,2.937,1.962L30.92,7.443q-.61-.476-1.255-.905Zm5.5,5.369A20.967,20.967,0,0,0,33.21,9.516l2.172-2.069a24.954,24.954,0,0,1,2.241,2.729L35.17,11.9ZM37.4,15.959q-.3-.713-.641-1.4l2.678-1.349a23.926,23.926,0,0,1,1.349,3.264l-2.849.939q-.242-.734-.537-1.449Zm1.59,7.52a20.97,20.97,0,0,0-.3-3.074l2.954-.511a24.214,24.214,0,0,1,.348,3.509l-3,.075ZM38.6,28.094c.1-.511.18-1.017.243-1.529l2.978.369a23.866,23.866,0,0,1-.691,3.465l-2.892-.8q.206-.742.36-1.5ZM35.742,35.23A21.184,21.184,0,0,0,37.2,32.507l2.742,1.215a24.227,24.227,0,0,1-1.665,3.114ZM32.85,38.845c.365-.365.717-.744,1.049-1.135l2.274,1.958q-.577.67-1.2,1.3L32.85,38.843Z" transform="translate(5.999)"/><path class="a" d="M24,3A21,21,0,1,0,38.848,38.845l2.121,2.121A24,24,0,1,1,24,0Z" transform="translate(0 0)"/><path class="a" d="M17.25,6.75a1.5,1.5,0,0,1,1.5,1.5V23.879l9.743,5.567A1.5,1.5,0,0,1,27,32.05l-10.5-6a1.5,1.5,0,0,1-.756-1.3V8.25A1.5,1.5,0,0,1,17.25,6.75Z" transform="translate(5.25 2.249)"/></g></svg>