<svg xmlns="http://www.w3.org/2000/svg" xmlns:xlink="http://www.w3.org/1999/xlink" width="20.216" height="20.212" viewBox="0 0 20.216 20.212"><defs><style>.a{fill:url(#a);}.b{fill:#000438;}</style><linearGradient id="a" x1="0.5" y1="1" x2="0.5" gradientUnits="objectBoundingBox"><stop offset="0" stop-color="#05d1c7"/><stop offset="1" stop-color="#77fd86"/></linearGradient></defs><g transform="translate(-211 407)"><g transform="translate(0.209 -0.791)"><path class="a" d="M8.9,0A8.9,8.9,0,1,1,0,8.9,8.9,8.9,0,0,1,8.9,0Z" transform="translate(212 -405)"/><g transform="translate(215 -403)"><path class="b" d="M-28.837-27.163c2.1,0,4.016,3.381,4.016,5.19a2.271,2.271,0,0,1-1.855,2.55c-.754.17-1.686-.532-2.458-.532-.984,0-1.764,1.112-3.165.4-.431-.315-1.722-1.178-.282-4.413C-31.381-26.386-30.286-27.163-28.837-27.163Z" transform="translate(35.152 32.255)"/><path class="b" d="M-11.118-30.751c.791,0,1.728,1.556,1.728,2.555a1.654,1.654,0,0,1-1.432,1.809,1.885,1.885,0,0,1-1.557-1.331C-12.662-28.588-12.715-30.884-11.118-30.751Z" transform="translate(12.533 34.189)"/><path class="b" d="M-10.5-25.738c-.791,0-2.029,1.433-2.029,2.432A1.654,1.654,0,0,0-11.1-21.5c.408,0,1.485.006,1.986-1.618C-8.833-23.986-8.907-25.871-10.5-25.738Z" transform="translate(21.928 29.74)"/><path class="b" d="M1.573.008C2.466.02,3.544,1.768,3.557,2.881a1.8,1.8,0,0,1-1.592,2A2.192,2.192,0,0,1,.19,3.371C-.141,2.4-.231-.163,1.573.008Z" transform="translate(3.067 0) rotate(8)"/><path class="b" d="M1.573,4.869c.893-.011,2.095-1.876,2.108-2.99A1.775,1.775,0,0,0,1.965,0,2.192,2.192,0,0,0,.19,1.506C-.141,2.48-.231,5.039,1.573,4.869Z" transform="translate(10.641 5) rotate(172)"/></g></g><path class="b" d="M9.858-.25A10.106,10.106,0,1,1-.25,9.856,10.118,10.118,0,0,1,9.858-.25Zm0,19.712A9.606,9.606,0,1,0,.25,9.856,9.618,9.618,0,0,0,9.858,19.462Z" transform="translate(211.25 -406.75)"/></g></svg>