<svg xmlns="http://www.w3.org/2000/svg" width="16" height="16" viewBox="0 0 16 16"><defs><style>.a{fill:#000438;}</style></defs><path class="a" d="M10.667,8A2.668,2.668,0,0,0,8,5.333,2.668,2.668,0,0,0,5.333,8,2.668,2.668,0,0,0,8,10.667,2.668,2.668,0,0,0,10.667,8ZM12.1,8A4.09,4.09,0,0,1,8,12.1,4.09,4.09,0,0,1,3.9,8,4.09,4.09,0,0,1,8,3.9,4.09,4.09,0,0,1,12.1,8Zm1.125-4.271a.958.958,0,1,1-1.635-.677.958.958,0,0,1,1.635.677ZM8,1.437l-.8-.005q-.724-.005-1.1,0T5.1,1.463a8.215,8.215,0,0,0-1.073.1,4.14,4.14,0,0,0-.744.193A2.724,2.724,0,0,0,1.76,3.281a4.18,4.18,0,0,0-.193.745,8.215,8.215,0,0,0-.1,1.073q-.026.63-.031,1.005t0,1.1q.005.724.005.8t-.005.8q-.005.724,0,1.1T1.464,10.9a8.215,8.215,0,0,0,.1,1.073,4.155,4.155,0,0,0,.193.744A2.724,2.724,0,0,0,3.281,14.24a4.18,4.18,0,0,0,.745.193,8.215,8.215,0,0,0,1.073.1q.63.026,1.005.031t1.1,0l.8-.005.8.005q.724.005,1.1,0t1.005-.031a8.214,8.214,0,0,0,1.073-.1,4.181,4.181,0,0,0,.745-.193,2.724,2.724,0,0,0,1.521-1.521,4.18,4.18,0,0,0,.193-.745,8.215,8.215,0,0,0,.1-1.073q.026-.63.031-1.005t0-1.1q-.005-.724-.005-.8t.005-.8q.005-.724,0-1.1T14.537,5.1a8.214,8.214,0,0,0-.1-1.073,4.1,4.1,0,0,0-.194-.744A2.724,2.724,0,0,0,12.719,1.76a4.18,4.18,0,0,0-.745-.193,8.215,8.215,0,0,0-1.073-.1q-.63-.026-1.005-.031t-1.1,0L8,1.438ZM16,8q0,2.385-.052,3.3a4.886,4.886,0,0,1-1.292,3.354A4.886,4.886,0,0,1,11.3,15.948Q10.385,16,8,16t-3.3-.052a4.886,4.886,0,0,1-3.354-1.292A4.886,4.886,0,0,1,.052,11.3Q0,10.385,0,8T.052,4.7A4.886,4.886,0,0,1,1.344,1.344,4.886,4.886,0,0,1,4.7.052Q5.615,0,8,0t3.3.052a4.886,4.886,0,0,1,3.354,1.292A4.886,4.886,0,0,1,15.948,4.7Q16,5.615,16,8Z"/></svg>