<svg xmlns="http://www.w3.org/2000/svg" width="36" height="48" viewBox="0 0 36 48"><defs><style>.a{fill:#000438;}</style></defs><g transform="translate(-5.627 -1.238)"><path class="a" d="M19.978,8.971A6.566,6.566,0,1,0,26.6,15.537,6.6,6.6,0,0,0,19.978,8.971Zm0,9.849a3.283,3.283,0,1,1,3.312-3.283A3.3,3.3,0,0,1,19.978,18.82Z" transform="translate(3.647 3.55)"/><path class="a" d="M36.353,6.46A18.118,18.118,0,0,0,12.29,5.223,17.736,17.736,0,0,0,8.543,28.816L21.056,47.858a3.081,3.081,0,0,0,5.137,0L38.708,28.816A17.726,17.726,0,0,0,36.355,6.46Zm-.421,20.564L23.625,45.753,11.318,27.024A14.533,14.533,0,0,1,13.239,8.781a14.781,14.781,0,0,1,20.773,0A14.529,14.529,0,0,1,35.932,27.024Z" transform="translate(0 0)"/></g></svg>