<svg xmlns="http://www.w3.org/2000/svg" xmlns:xlink="http://www.w3.org/1999/xlink" width="96.835" height="80.494" viewBox="0 0 96.835 80.494"><defs><style>.a{fill:url(#a);}.b{fill:#000438;}.c{fill:#fff;}.d{fill:url(#b);}.e{fill:url(#c);}.f{fill:#c1c5c0;}.g{fill:#c3c5c5;}.h,.k{fill:#31323f;}.i{fill:#beeaf8;}.j{fill:#fffcff;}.k{opacity:0.1;}.l{fill:url(#d);}.m{fill:url(#e);}.n{fill:url(#f);}.o{fill:url(#g);}.p{fill:url(#h);}.q{fill:url(#i);}.r{fill:url(#j);}.s{fill:url(#k);}.t{fill:url(#l);}.u{fill:url(#m);}.v{fill:#f6f800;}</style><linearGradient id="a" x1="0.5" y1="1" x2="0.5" gradientUnits="objectBoundingBox"><stop offset="0" stop-color="#05d1c7"/><stop offset="1" stop-color="#77fd86"/></linearGradient><linearGradient id="b" x1="0.5" y1="1" x2="0.5" gradientUnits="objectBoundingBox"><stop offset="0" stop-color="#77fd86"/><stop offset="1" stop-color="#05d1c7"/></linearGradient><linearGradient id="c" y1="1" y2="0" xlink:href="#b"/><linearGradient id="d" x1="0.065" y1="0.5" x2="0.935" y2="0.5" xlink:href="#a"/><linearGradient id="e" x1="0.17" y1="0.5" x2="0.83" y2="0.5" xlink:href="#a"/><linearGradient id="f" x1="0.17" y1="0.5" x2="0.83" y2="0.5" xlink:href="#a"/><linearGradient id="g" x1="0.017" y1="0.5" x2="0.984" y2="0.5" xlink:href="#a"/><linearGradient id="h" x1="0.002" y1="0.5" x2="1" y2="0.5" xlink:href="#a"/><linearGradient id="i" x1="-0.192" y1="0.5" x2="1.192" y2="0.5" xlink:href="#a"/><linearGradient id="j" x1="-0.024" y1="0.5" x2="1.024" y2="0.5" xlink:href="#a"/><linearGradient id="k" x1="-0.025" y1="0.5" x2="1.025" y2="0.5" xlink:href="#a"/><linearGradient id="l" x1="-0.27" y1="0.5" x2="1.268" y2="0.5" xlink:href="#a"/><linearGradient id="m" x1="0" y1="0.5" x2="0.998" y2="0.5" xlink:href="#a"/></defs><path class="a" d="M36.2,0A36.057,36.057,0,1,1,0,36.057,36.127,36.127,0,0,1,36.2,0Z" transform="translate(12.284 4.682)"/><path class="b" d="M138.3,85.764a9.1,9.1,0,0,1-.5,2.01,37.9,37.9,0,1,1-21.068-6.12,7.425,7.425,0,0,1,1.727-1.939c-.438-.018-.876-.025-1.319-.025A39.837,39.837,0,1,0,138.3,85.764Z" transform="translate(-68.685 -78.612)"/><path class="b" d="M133.837,266.025a290.6,290.6,0,0,0-90.84,0L40,247.1a309.871,309.871,0,0,1,96.835,0Z" transform="translate(-40 -204.627)"/><path class="c" d="M143.27,260.377l.357-.062.95-.125.344-.028a13.313,13.313,0,0,1,1.667,0,5.162,5.162,0,0,1,1.692.383,3.571,3.571,0,0,1,2.213,2.983v.018a4.773,4.773,0,0,1-.141,1.579,3.567,3.567,0,0,1-.546,1.132,3.154,3.154,0,0,1-.8.768,4.44,4.44,0,0,1-.908.461,5.073,5.073,0,0,1-.885.231c-.286.046-.521.078-.708.092l-.318.023a.428.428,0,0,1-.124,0q.261,2.324.516,4.648c-.812.1-1.614.2-2.43.3Q143.706,266.579,143.27,260.377Zm2.79,5.7a7.347,7.347,0,0,0,.74-.1,3,3,0,0,0,.892-.318,2.161,2.161,0,0,0,.74-.655,1.692,1.692,0,0,0,.261-1.118v-.12a1.526,1.526,0,0,0-.2-.62,1.649,1.649,0,0,0-.406-.461,2.575,2.575,0,0,0-.533-.316,4.608,4.608,0,0,0-.581-.207,5.724,5.724,0,0,0-1.561-.145q.207,2.038.41,4.074Z" transform="translate(-119.46 -217.579)"/><path class="c" d="M176.77,258.018q2.8-.214,5.61-.378l.076,2.075q-1.9,0-3.809.044.138,1.66.272,3.318,1.3-.166,2.6-.323l.081,2.01q-1.245.035-2.49.078.09,1.805.178,3.608,1.75-.279,3.5-.542c.085.715.168,1.427.254,2.142q-2.919.208-5.826.473Q176.989,264.271,176.77,258.018Z" transform="translate(-145.237 -215.657)"/><path class="c" d="M205.73,257.2l.36-.046.955-.081h.344a13.076,13.076,0,0,1,1.665.069,5.074,5.074,0,0,1,1.672.461,3.571,3.571,0,0,1,2.075,3.085v.016a4.689,4.689,0,0,1-.214,1.572,3.571,3.571,0,0,1-.6,1.107,3.189,3.189,0,0,1-.839.729,4.562,4.562,0,0,1-.922.417,5.051,5.051,0,0,1-.895.2c-.288.035-.526.055-.712.06H208.3a.358.358,0,0,1-.124-.014q.148,2.336.3,4.667-1.22.09-2.439.191Q205.875,263.41,205.73,257.2Zm2.518,5.829a7.152,7.152,0,0,0,.742-.069,3.019,3.019,0,0,0,.906-.277,2.138,2.138,0,0,0,.77-.618,1.7,1.7,0,0,0,.311-1.107v-.118a1.5,1.5,0,0,0-.171-.629,1.644,1.644,0,0,0-.385-.461,2.606,2.606,0,0,0-.516-.341,4.635,4.635,0,0,0-.569-.231,5.69,5.69,0,0,0-1.552-.217q.111,2.045.217,4.088Z" transform="translate(-167.52 -215.214)"/><path class="c" d="M238.778,256.933q2.808-.083,5.619-.113l-.021,2.075q-1.9-.078-3.807-.136.06,1.665.113,3.325,1.307-.1,2.615-.2l-.014,2.013q-1.245-.023-2.49-.039v3.613q1.764-.2,3.528-.376l.152,2.151q-2.923.069-5.842.2Q238.7,263.19,238.778,256.933Z" transform="translate(-192.834 -215.025)"/><path class="c" d="M269.715,257.971q-1.038.021-2.075.051.083-.948.171-1.891,3.126-.187,6.264-.311.032,1,.058,2c-.738.037-1.478.076-2.216.12q.025,5.34.037,10.677-1.25,0-2.5.025Q269.579,263.3,269.715,257.971Z" transform="translate(-215.156 -214.255)"/><path class="c" d="M297.659,271.116a2.128,2.128,0,0,1-1.533-.692,4.758,4.758,0,0,1-.941-1.6,9.556,9.556,0,0,1-.48-2.006,13.424,13.424,0,0,1-.127-1.932l.042-.733a15.892,15.892,0,0,1,.214-1.808,7.19,7.19,0,0,1,.537-1.764,3.689,3.689,0,0,1,1.005-1.328,2.393,2.393,0,0,1,1.593-.514,2.441,2.441,0,0,1,1.213.364,3.315,3.315,0,0,1,.922.874,5.071,5.071,0,0,1,.636,1.229,10.043,10.043,0,0,1,.39,1.418,11.442,11.442,0,0,1,.194,1.462,10.8,10.8,0,0,1,.012,1.36,1.2,1.2,0,0,1-.012.2,9.851,9.851,0,0,1-.3,1.87,7.578,7.578,0,0,1-.692,1.8,4.24,4.24,0,0,1-1.107,1.326A2.29,2.29,0,0,1,297.659,271.116Zm.1-2.5a.77.77,0,0,0,.625-.263,2.1,2.1,0,0,0,.422-.722,6,6,0,0,0,.258-.959c.065-.346.115-.671.154-.975s.039-.544.058-.816a10,10,0,0,0,0-1.017,5.037,5.037,0,0,0-.138-1,2.144,2.144,0,0,0-.327-.759.727.727,0,0,0-.576-.318.791.791,0,0,0-.629.244,1.923,1.923,0,0,0-.4.676,4.46,4.46,0,0,0-.231.922c-.051.344-.09.68-.115,1.01l-.048.749c-.014.307-.018.641-.016,1.005a6.034,6.034,0,0,0,.09,1.028,2.391,2.391,0,0,0,.288.823.673.673,0,0,0,.572.357Z" transform="translate(-235.883 -216.503)"/><path class="c" d="M326.36,272.883a3.14,3.14,0,0,1-1.436-.486,4.812,4.812,0,0,1-1.383-1.383q.574-1.035,1.153-2.075a3,3,0,0,0,1.69,1.047q.752.053.975-.871l.055-.3a.941.941,0,0,0-.2-.692,2.579,2.579,0,0,0-.583-.5l-.772-.5a3.787,3.787,0,0,1-.791-.692,3.5,3.5,0,0,1-.629-1.054,4.555,4.555,0,0,1-.27-1.614c0-.09,0-.182,0-.272a3.373,3.373,0,0,1,.3-1.238,3.245,3.245,0,0,1,.692-.982,2.984,2.984,0,0,1,1-.629,2.714,2.714,0,0,1,1.2-.178,3.389,3.389,0,0,1,1.522.51,5.059,5.059,0,0,1,1.462,1.434q-.858.713-1.706,1.427a2.351,2.351,0,0,0-.611-.616,1.431,1.431,0,0,0-.71-.263.961.961,0,0,0-.574.141,1.125,1.125,0,0,0-.44.544,2.007,2.007,0,0,0-.168.655,1.088,1.088,0,0,0,.194.731,2.369,2.369,0,0,0,.579.551,7.929,7.929,0,0,0,.8.482,6.54,6.54,0,0,1,.851.539,4.2,4.2,0,0,1,.729.692,2.228,2.228,0,0,1,.438.975,4.506,4.506,0,0,1,.067,1.169,4,4,0,0,1-.362,1.383,3.95,3.95,0,0,1-.777,1.114,3.262,3.262,0,0,1-1.072.715,2.737,2.737,0,0,1-1.222.237Z" transform="translate(-258.167 -217.824)"/><path class="d" d="M55.33,344.39l8.953-.95,1.731,3.11Z" transform="translate(-51.796 -281.71)"/><path class="e" d="M400.7,344.624l1.688-2.734,8.478,1.005Z" transform="translate(-317.538 -280.516)"/><path class="f" d="M150.871,289.18a2.016,2.016,0,0,1-.249.182,4.513,4.513,0,0,1-.908.461,5.23,5.23,0,0,1-.883.231c-.286.046-.523.078-.712.09l-.314.025a.364.364,0,0,1-.127,0q.263,2.324.514,4.646-1.215.148-2.43.307l-.392-5.561Q148.118,289.341,150.871,289.18Z" transform="translate(-121.076 -239.933)"/><path class="f" d="M183.856,293.231c-1.948.138-3.887.3-5.831.475-.069-1.909-.138-3.823-.205-5.729q2.289-.129,4.579-.217v.184c-.83.023-1.655.048-2.485.076.055,1.206.118,2.407.175,3.613q1.75-.279,3.507-.544C183.688,291.8,183.768,292.516,183.856,293.231Z" transform="translate(-146.044 -238.84)"/><path class="f" d="M211.926,286.93a2.379,2.379,0,0,1-.231.145,4.133,4.133,0,0,1-.922.417,4.924,4.924,0,0,1-.892.2c-.291.032-.528.053-.715.058h-.316a.463.463,0,0,1-.122,0q.15,2.331.3,4.662l-2.444.194q-.065-2.767-.129-5.547Q209.189,286.946,211.926,286.93Z" transform="translate(-168.074 -238.2)"/><path class="f" d="M244.5,292.29q-2.923.071-5.842.2.032-2.857.065-5.718,2.289-.016,4.584,0v.173c-.83-.018-1.662-.035-2.492-.042v3.613q1.761-.2,3.525-.376C244.4,290.859,244.452,291.576,244.5,292.29Z" transform="translate(-192.857 -238.073)"/><path class="f" d="M277.985,292.617c-.83,0-1.665.012-2.495.025q.065-2.822.138-5.633c.777.014,1.554.03,2.336.058Q277.98,289.837,277.985,292.617Z" transform="translate(-221.196 -238.262)"/><path class="f" d="M301.365,287.751a10.052,10.052,0,0,1-.3,1.844,7.378,7.378,0,0,1-.692,1.8,4.314,4.314,0,0,1-1.1,1.323,2.276,2.276,0,0,1-1.563.461,2.117,2.117,0,0,1-1.533-.692,4.773,4.773,0,0,1-.941-1.6,9.7,9.7,0,0,1-.48-2.006,14.2,14.2,0,0,1-.12-1.443c.742.021,1.478.048,2.218.078-.012.29-.016.609-.012.952a5.812,5.812,0,0,0,.085,1.026,2.506,2.506,0,0,0,.29.825.675.675,0,0,0,.574.355h.016a.772.772,0,0,0,.625-.258,2.094,2.094,0,0,0,.417-.724,6.065,6.065,0,0,0,.263-.959c.06-.344.113-.671.15-.978a1.286,1.286,0,0,0,0-.134Z" transform="translate(-235.923 -238.593)"/><path class="f" d="M329.811,291.716a4.007,4.007,0,0,1-1.137,2.5,3.419,3.419,0,0,1-1.072.717,2.766,2.766,0,0,1-1.245.2,3.131,3.131,0,0,1-1.434-.487,4.843,4.843,0,0,1-1.383-1.383c.38-.692.77-1.383,1.153-2.075a3.019,3.019,0,0,0,1.695,1.051c.5.032.823-.258.973-.874.018-.1.037-.205.053-.3a.922.922,0,0,0-.2-.692,2.71,2.71,0,0,0-.583-.5l-.775-.493h0q1.729.1,3.458.231a2.2,2.2,0,0,1,.415.936A4.6,4.6,0,0,1,329.811,291.716Z" transform="translate(-258.167 -240.087)"/><path class="g" d="M145.37,289.57q.2,2.783.392,5.561,1.217-.159,2.43-.307-.254-2.319-.514-4.646a.364.364,0,0,0,.127,0l.314-.025c.189-.011.427-.044.712-.09a5.227,5.227,0,0,0,.883-.231,4.51,4.51,0,0,0,.908-.461,2.02,2.02,0,0,0,.249-.182Q148.118,289.351,145.37,289.57Z" transform="translate(-121.076 -239.941)"/><path class="g" d="M183.626,291.089q-1.757.267-3.507.544c-.058-1.206-.12-2.407-.175-3.613.83-.028,1.655-.053,2.485-.076v-.184q-2.289.09-4.579.217c.067,1.907.136,3.82.205,5.729,1.944-.18,3.883-.337,5.831-.475C183.792,292.516,183.711,291.8,183.626,291.089Z" transform="translate(-146.068 -238.84)"/><path class="g" d="M206.43,287.039q.065,2.767.129,5.547l2.444-.194q-.15-2.329-.3-4.662a.463.463,0,0,0,.122,0h.316a7.1,7.1,0,0,0,.715-.058,4.927,4.927,0,0,0,.892-.2,4.135,4.135,0,0,0,.922-.417,2.367,2.367,0,0,0,.231-.145Q209.169,286.931,206.43,287.039Z" transform="translate(-168.058 -238.185)"/><path class="g" d="M244.371,290.142q-1.766.175-3.525.376V286.9c.83,0,1.662.023,2.492.041v-.173q-2.306-.016-4.584,0-.035,2.863-.065,5.718,2.921-.131,5.842-.2C244.475,291.576,244.419,290.859,244.371,290.142Z" transform="translate(-192.88 -238.073)"/><path class="g" d="M277.964,287.068c-.782-.028-1.559-.044-2.336-.058q-.071,2.815-.138,5.633c.83-.014,1.665-.021,2.495-.025Q277.978,289.841,277.964,287.068Z" transform="translate(-221.196 -238.262)"/><path class="g" d="M299.277,287.694a1.3,1.3,0,0,1,0,.134c-.037.307-.09.634-.15.978a6.067,6.067,0,0,1-.263.959,2.093,2.093,0,0,1-.417.724.772.772,0,0,1-.625.258h-.016a.675.675,0,0,1-.574-.355,2.506,2.506,0,0,1-.291-.825,5.809,5.809,0,0,1-.085-1.026c0-.344,0-.662.012-.952-.74-.03-1.476-.058-2.218-.078a14.182,14.182,0,0,0,.12,1.443,9.7,9.7,0,0,0,.48,2.006,4.773,4.773,0,0,0,.941,1.6,2.116,2.116,0,0,0,1.533.692,2.276,2.276,0,0,0,1.563-.461,4.314,4.314,0,0,0,1.1-1.323,7.378,7.378,0,0,0,.692-1.8,10.057,10.057,0,0,0,.3-1.844Q300.326,287.743,299.277,287.694Z" transform="translate(-235.938 -238.647)"/><path class="g" d="M329.793,290.547a2.2,2.2,0,0,0-.415-.936q-1.736-.129-3.458-.231h0l.775.493a2.71,2.71,0,0,1,.583.5.922.922,0,0,1,.2.692c-.016.1-.035.2-.053.3-.15.616-.473.906-.973.874a3.033,3.033,0,0,1-1.695-1.051c-.383.692-.772,1.383-1.153,2.075a4.842,4.842,0,0,0,1.383,1.383,3.131,3.131,0,0,0,1.434.487,2.767,2.767,0,0,0,1.245-.2,3.419,3.419,0,0,0,1.072-.717,4.007,4.007,0,0,0,1.137-2.5A4.6,4.6,0,0,0,329.793,290.547Z" transform="translate(-258.214 -240.087)"/><path class="h" d="M247.128,148.93l-.118.081c.044-.023.085-.053.122-.076Z" transform="translate(-199.282 -131.93)"/><path class="b" d="M206.4,77.929a3.093,3.093,0,0,0-1.8-1.946,2.193,2.193,0,0,0-1.669.318c-3.228,1.877-4.922.348-4.975.3a5.358,5.358,0,0,0-1.939-1.222,6.7,6.7,0,0,0-5.28.383,7.955,7.955,0,0,0-4.035,3.47,4.259,4.259,0,0,0-.32.862c-.028.111-.044.208-.058.29-3.841,1.277-6.624,3.228-7.825,5.434a5.3,5.3,0,0,0-.491,1.194,4.744,4.744,0,0,0-.157.853,4.817,4.817,0,0,0,1.153,4,4.662,4.662,0,0,0,3.472,1.247h.4a7.65,7.65,0,0,1-1.964,1.529,8.745,8.745,0,0,1-12.39-5.084l-.5-1.478-.3,1.531c-.874,4.586.36,7.486,1.556,9.119a8.579,8.579,0,0,0,2.483,2.246,45,45,0,0,0-3.228,6.638c-1.026,2.661-1.153,3.772-.526,4.4a1.277,1.277,0,0,0,1,.355,10.931,10.931,0,0,0,2.93-.65c.9-.286,1.812-.613,2.711-.973.316-.127.632-.258.945-.392q1-.422,1.974-.9a15.575,15.575,0,0,0,4.307,1.153c.316.039.629.065.945.085.387.021.782.028,1.169.021a15.7,15.7,0,0,0,6.036-1.365c.293.187.842.539.89.567a13.071,13.071,0,0,0,5.111,2.137c1.983.205,5.167-.424,5.674-2.439.364-1.434-.839-2.845-1.383-3.392l-.231-.231-.786-.775-2.393-2.306a15.193,15.193,0,0,0,2.128-3.078c.134-.265.265-.53.38-.8a12.822,12.822,0,0,0,.961-3.244,15.123,15.123,0,0,0-.438-6.343,9.914,9.914,0,0,0,3.726-1.672,7.751,7.751,0,0,0,2.386-2.536A8.886,8.886,0,0,0,206.4,77.929Zm-.205,3.636a7.242,7.242,0,0,1-.846,3.281,6.933,6.933,0,0,1-2.156,2.269,8.954,8.954,0,0,1-3.493,1.549,9.042,9.042,0,0,0-1.215-2.391,2.325,2.325,0,0,0-1.457-1.051,2.038,2.038,0,0,0-1.383.323,1.95,1.95,0,0,0-.708,1.844c.148.825.883,1.466,2.2,1.909a5.268,5.268,0,0,0,1.987.256,14.188,14.188,0,0,1,.461,2.075c.039.279.071.565.1.855a13.869,13.869,0,0,1,.021,2.211c-.025.3-.058.593-.1.885a.208.208,0,0,1-.012.083,13.39,13.39,0,0,1-3.534,6.986l-.274.3,4,3.832a5.6,5.6,0,0,1,.842,1.1,3.121,3.121,0,0,1,.242.528,1.7,1.7,0,0,1,.078.985c-.369,1.459-3.073,2.006-4.8,1.826a10.978,10.978,0,0,1-3.546-1.3c-.32-.178-.655-.369-1.008-.586h0l-.2-.127c-.069-.039-1.084-.692-1.084-.692l-.189-.122-.2.092a14.606,14.606,0,0,1-11.1.549c-.362-.127-.712-.265-1.061-.422l-.175-.076-.178.085-.27.131a39.833,39.833,0,0,1-5.418,2.183c-1.863.588-2.847.745-3.1.491s-.189-.818.134-1.872c.046-.159.1-.33.164-.51.115-.344.254-.724.417-1.153a44.039,44.039,0,0,1,3.368-6.859l.217-.36-.364-.205a8.123,8.123,0,0,1-2.587-2.236,9.965,9.965,0,0,1-1.614-7.039c.111.231.231.45.376.692a10.145,10.145,0,0,0,.586.858h0a9.135,9.135,0,0,0,1.436,1.487,9.741,9.741,0,0,0,10.58,1.123,8.3,8.3,0,0,0,2.075-1.589,5.937,5.937,0,0,1,.715-.535l.078-.055c.461-.314,1-.662,1.293-.848.058-.032.106-.067.143-.085l.032-.016.136-.088.106-.074h.012l.231-.152a5.517,5.517,0,0,0,.493-.385,8.705,8.705,0,0,0,2.578-4.261,11.26,11.26,0,0,0,.394-5.1.409.409,0,0,0-.809.113,10.818,10.818,0,0,1,0,3.159,10.148,10.148,0,0,1-.376,1.591c-.016.058-.037.113-.058.175a7.4,7.4,0,0,1-2.7,4.049,5.4,5.4,0,0,1-3,1.058,4.118,4.118,0,0,1-3.071-1,4.047,4.047,0,0,1-.922-3.35,5.88,5.88,0,0,1,2.253-3.751,10.388,10.388,0,0,1,.83-.655,19.64,19.64,0,0,1,6.225-2.794.413.413,0,0,0,.286-.5.406.406,0,0,0-.5-.286l-.526.148a4.974,4.974,0,0,1,1.81-2.384,9.1,9.1,0,0,1,1.153-.759c.27-.157.565-.307.885-.461,3.919-1.819,6.181.551,6.292.671a4.062,4.062,0,0,0,3.5.789,5.788,5.788,0,0,0,.911-.231,8.572,8.572,0,0,0,1.559-.719,1.383,1.383,0,0,1,1.044-.231c.461.122.908.662,1.257,1.476a7.234,7.234,0,0,1,.5,2.075,8.608,8.608,0,0,1,.035,1.229Zm-7.339,7.175a4.3,4.3,0,0,1-1.459-.231c-1.252-.427-1.593-.922-1.651-1.275a1.127,1.127,0,0,1,.385-1.042,1.178,1.178,0,0,1,.639-.18,1.219,1.219,0,0,1,.154,0,1.689,1.689,0,0,1,.908.729A7.99,7.99,0,0,1,198.857,88.74Z" transform="translate(-138.059 -75.013)"/><path class="c" d="M293.271,125.439a4.3,4.3,0,0,1-1.459-.231c-1.252-.427-1.593-.922-1.651-1.275a1.127,1.127,0,0,1,.385-1.042,1.178,1.178,0,0,1,.639-.18,1.219,1.219,0,0,1,.154,0,1.689,1.689,0,0,1,.908.729,7.986,7.986,0,0,1,1.024,2Z" transform="translate(-232.473 -111.713)"/><path class="c" d="M209,84.265a7.242,7.242,0,0,1-.846,3.281A6.932,6.932,0,0,1,206,89.814a8.954,8.954,0,0,1-3.493,1.549,9.043,9.043,0,0,0-1.215-2.391,2.325,2.325,0,0,0-1.457-1.051,2.038,2.038,0,0,0-1.383.323,1.95,1.95,0,0,0-.708,1.844c.148.825.883,1.466,2.2,1.909a5.268,5.268,0,0,0,1.987.256,14.188,14.188,0,0,1,.461,2.075c.039.279.071.565.1.855A13.869,13.869,0,0,1,202.5,97.4c-.025.3-.058.593-.1.885a.207.207,0,0,1-.012.083,13.39,13.39,0,0,1-3.534,6.986l-.274.3,4,3.832a5.6,5.6,0,0,1,.842,1.1,3.122,3.122,0,0,1,.242.528,1.7,1.7,0,0,1,.078.984c-.369,1.459-3.073,2.006-4.8,1.826a10.978,10.978,0,0,1-3.546-1.3c-.32-.178-.655-.369-1.008-.586h0l-.2-.127c-.069-.039-1.084-.692-1.084-.692l-.189-.122-.2.092a14.606,14.606,0,0,1-11.1.549c-.362-.127-.712-.265-1.061-.422l-.175-.076-.178.085-.27.131a39.833,39.833,0,0,1-5.418,2.183c-1.863.588-2.847.745-3.1.491s-.189-.818.134-1.872c.046-.159.1-.33.164-.51.115-.344.254-.724.417-1.153a44.038,44.038,0,0,1,3.368-6.859l.217-.36-.364-.205a8.123,8.123,0,0,1-2.587-2.236,9.965,9.965,0,0,1-1.614-7.039c.111.231.231.45.376.692a10.153,10.153,0,0,0,.586.858h0a9.134,9.134,0,0,0,1.436,1.487,9.741,9.741,0,0,0,10.58,1.123,8.3,8.3,0,0,0,2.075-1.589,5.937,5.937,0,0,1,.715-.535l.078-.055c.461-.314,1-.662,1.293-.848.058-.032.106-.067.143-.085l.032-.016.136-.088.106-.074h.012l.231-.152a5.515,5.515,0,0,0,.493-.385,8.705,8.705,0,0,0,2.578-4.261,11.26,11.26,0,0,0,.394-5.1.409.409,0,1,0-.809.113,10.819,10.819,0,0,1,0,3.159,10.146,10.146,0,0,1-.376,1.591c-.016.058-.037.113-.058.175a7.4,7.4,0,0,1-2.7,4.049,5.4,5.4,0,0,1-3,1.058,4.118,4.118,0,0,1-3.071-1,4.048,4.048,0,0,1-.922-3.35,5.88,5.88,0,0,1,2.253-3.751,10.382,10.382,0,0,1,.83-.655,19.639,19.639,0,0,1,6.225-2.794.413.413,0,0,0,.286-.5.406.406,0,0,0-.5-.286l-.526.148a4.974,4.974,0,0,1,1.81-2.384,9.1,9.1,0,0,1,1.153-.759c.27-.157.565-.307.885-.461,3.919-1.819,6.181.551,6.292.671a4.062,4.062,0,0,0,3.5.789,5.789,5.789,0,0,0,.911-.231,8.573,8.573,0,0,0,1.559-.719,1.383,1.383,0,0,1,1.044-.231c.461.122.908.662,1.257,1.476a7.235,7.235,0,0,1,.5,2.075A8.6,8.6,0,0,1,209,84.265Z" transform="translate(-140.863 -77.713)"/><path class="i" d="M202.235,89.22A8.063,8.063,0,0,0,198.5,92.6a5.777,5.777,0,0,0-.65,2.6,13.9,13.9,0,0,1-.217,1.757c-.613,3.166-2.852,7.131-6.467,8.847a9.873,9.873,0,0,1-4.277.922c-.493,0-.9-.028-1.194-.053-10.8-.828-12.5-7.276-12.759-9.222a10.143,10.143,0,0,0,.586.858h0a9.135,9.135,0,0,0,1.436,1.487,9.741,9.741,0,0,0,10.58,1.123,8.3,8.3,0,0,0,2.075-1.589,5.936,5.936,0,0,1,.715-.535l.078-.055c.461-.314,1-.662,1.293-.848.058-.032.106-.067.143-.085l.032-.016.136-.088.106-.074h.012l.231-.152a5.513,5.513,0,0,0,.493-.385,8.705,8.705,0,0,0,2.578-4.261,11.26,11.26,0,0,0,.415-5.088.409.409,0,1,0-.809.113,10.817,10.817,0,0,1,0,3.159,10.145,10.145,0,0,1-.376,1.591c-.016.058-.037.113-.058.175a8.03,8.03,0,0,1-2.866,3.02,6.244,6.244,0,0,1-2.914.922,2.642,2.642,0,0,1-2.273-1.164c-1.153-1.63-.173-4.212.62-5.778a10.374,10.374,0,0,1,.83-.655,19.639,19.639,0,0,1,6.225-2.794.413.413,0,0,0,.286-.5.406.406,0,0,0-.5-.286l-.526.148A4.974,4.974,0,0,1,193.3,83.3a9.1,9.1,0,0,1,1.153-.759,9.529,9.529,0,0,1,5.049.134,7.516,7.516,0,0,1,2.495,1.3l2.481.2.037.138C205.3,87.553,202.279,89.2,202.235,89.22Z" transform="translate(-142.29 -80.595)"/><path class="b" d="M252.913,149.8c-.025.3-.058.593-.1.885a21.564,21.564,0,0,1-6.078.888,20.319,20.319,0,0,1-10.126-2.709,5.931,5.931,0,0,1,.715-.535l1.805-1.169.231-.152a5.512,5.512,0,0,0,.493-.385c5.609,3.078,11.627.692,12.95.111.039.279.071.565.1.855A13.869,13.869,0,0,1,252.913,149.8Z" transform="translate(-191.28 -130.154)"/><path class="h" d="M241.486,149.73l-1.436.934c.461-.314,1-.662,1.293-.848A1.373,1.373,0,0,0,241.486,149.73Z" transform="translate(-193.927 -132.546)"/><path class="b" d="M206.631,225.556a12.925,12.925,0,0,1-.9,1.153,11.374,11.374,0,0,1-1.752,1.651,5.984,5.984,0,0,1-3.26,1.383,2.107,2.107,0,0,1-1.081-.281c-1.054-.613-1.506-2.183-1.178-3.846.316-.127.632-.258.945-.392q1-.422,1.974-.9a15.573,15.573,0,0,0,4.307,1.153C206,225.51,206.315,225.535,206.631,225.556Z" transform="translate(-161.845 -189.987)"/><path class="b" d="M305.006,183.618c-.127,1.063-1.289,1.967-2.958,2.306h-.058l-3.509.208-.8-.768-2.393-2.306a15.193,15.193,0,0,0,2.128-3.078c.134-.265.265-.53.38-.8a10.186,10.186,0,0,1,4.662,1.423C303.537,181.26,305.165,182.246,305.006,183.618Z" transform="translate(-236.431 -155.228)"/><path class="b" d="M220.717,93.33a4.26,4.26,0,0,0-.32.862c-.028.111-.044.208-.058.291-3.841,1.277-6.624,3.228-7.825,5.434a5.3,5.3,0,0,0-.491,1.194,4.5,4.5,0,0,1,.118-3.866C213.272,95.151,216.158,93.837,220.717,93.33Z" transform="translate(-172.069 -89.107)"/><path class="b" d="M161.583,138.125a3.654,3.654,0,0,1-.9-1.6,4.42,4.42,0,0,1-.1-1.879,4.612,4.612,0,0,1,.662-1.752,4.125,4.125,0,0,1,1.27-1.323l.023.018c-.265.551-.51,1.07-.71,1.6a8.5,8.5,0,0,0-.461,1.591,6.846,6.846,0,0,0-.088,1.642A9.724,9.724,0,0,0,161.583,138.125Z" transform="translate(-132.736 -118.565)"/><path class="b" d="M208.47,107.628a1.69,1.69,0,0,1-.385-1.005,2,2,0,0,1,.182-1.153,2.416,2.416,0,0,1,.726-.883,2.5,2.5,0,0,1,1-.477l.012.018c-.254.27-.5.514-.712.77a4.175,4.175,0,0,0-.549.8,2.571,2.571,0,0,0-.256.906,3.581,3.581,0,0,0-.016,1.024Z" transform="translate(-169.317 -97.401)"/><path class="j" d="M322.675,86.782a1.586,1.586,0,0,1-.627.263,1.744,1.744,0,0,1-.4.044,1.232,1.232,0,0,1-.284-.028c-.339-.074-.424-.258-.45-.364a.509.509,0,0,1,.263-.514,1.812,1.812,0,0,1,1.307-.272.54.54,0,0,1,.461.367A.512.512,0,0,1,322.675,86.782Z" transform="translate(-256.145 -83.377)"/><path class="b" d="M317.048,86.076a7.235,7.235,0,0,0-.5-2.075,2.4,2.4,0,0,0-1.257-1.476,1.383,1.383,0,0,0-1.044.231,8.572,8.572,0,0,1-1.559.719,5.79,5.79,0,0,1-.911.231,4.6,4.6,0,0,0,.231,3.362,2.312,2.312,0,0,0,1.909,1c.173,0,.337.016.5.016a4.137,4.137,0,0,0,2.679-.777A8.607,8.607,0,0,0,317.048,86.076Zm-3.06-2.495a1.812,1.812,0,0,1,1.307-.272.54.54,0,0,1,.461.367.512.512,0,0,1-.263.514,1.586,1.586,0,0,1-.627.263,1.746,1.746,0,0,1-.4.044,1.234,1.234,0,0,1-.284-.028c-.339-.074-.424-.258-.45-.364A.509.509,0,0,1,313.989,83.582Z" transform="translate(-248.955 -80.776)"/><path class="i" d="M218.173,193.85a1.86,1.86,0,0,1-1.383.514,3.514,3.514,0,0,1-.908-.127c-1.335-.364-1.531-.98-1.531-1.316a.873.873,0,0,1,.016-.161c.164-.749,1.24-1.141,2.557-.934,1.077.178,1.409.692,1.506.982A1.019,1.019,0,0,1,218.173,193.85Z" transform="translate(-174.152 -164.92)"/><path class="i" d="M205.088,198.819a.879.879,0,0,1-.768.4h-.067a1.114,1.114,0,0,1-.941-.692c-.256-.606-.037-.987.258-1.141a1.166,1.166,0,0,1,1.453.565A.789.789,0,0,1,205.088,198.819Z" transform="translate(-165.573 -169.176)"/><path class="i" d="M180.806,220.685l-.27.131a39.831,39.831,0,0,1-5.4,2.176c-1.863.588-2.847.745-3.1.491s-.189-.819.134-1.872c.046-.159.1-.33.164-.51a1.735,1.735,0,0,0,.318.387,1.959,1.959,0,0,0,.427.277c.895.415,3.659-.35,3.659-.35a17.553,17.553,0,0,1,3.325-.754A3.276,3.276,0,0,1,180.806,220.685Z" transform="translate(-141.47 -187.158)"/><path class="i" d="M281.5,219.044c-.369,1.459-3.073,2.006-4.8,1.826a10.979,10.979,0,0,1-3.546-1.3c-.32-.178-.655-.369-1.008-.586,1.614.254,6.456.874,8.358-.544a1.764,1.764,0,0,0,.671-.922,3.126,3.126,0,0,1,.242.528A1.7,1.7,0,0,1,281.5,219.044Z" transform="translate(-218.626 -184.748)"/><ellipse class="b" cx="0.304" cy="0.304" rx="0.304" ry="0.304" transform="translate(63.224 9.093)"/><ellipse class="b" cx="0.304" cy="0.304" rx="0.304" ry="0.304" transform="translate(63.528 10.658)"/><ellipse class="b" cx="0.304" cy="0.304" rx="0.304" ry="0.304" transform="translate(64.884 8.86)"/><path class="h" d="M241.486,149.676l.032-.016-1.469.95c.461-.314,1-.662,1.293-.848A1.371,1.371,0,0,0,241.486,149.676Z" transform="translate(-193.927 -132.492)"/><path class="h" d="M247.132,148.95l-.122.076.106-.074Z" transform="translate(-199.282 -131.945)"/><path class="b" d="M291.137,96.317a1.708,1.708,0,0,1-.111-1.383,1.8,1.8,0,0,1,1.058-1.054,1.642,1.642,0,0,1,1.508.106,1.814,1.814,0,0,1,.77,1.153,3.419,3.419,0,0,0-1.033-.6,1.353,1.353,0,0,0-.955.074,1.773,1.773,0,0,0-.791.6A3.3,3.3,0,0,0,291.137,96.317Z" transform="translate(-233.076 -89.426)"/><path class="k" d="M299.245,189.957c-.523.254-.895.438-1.058.512a6.607,6.607,0,0,1-1.287-1.035,12.786,12.786,0,0,1,1.358-.964A9.02,9.02,0,0,0,299.245,189.957Z" transform="translate(-237.67 -162.378)"/><ellipse class="l" cx="1.459" cy="0.918" rx="1.459" ry="0.918" transform="translate(80.752 48.837) rotate(-39.23)"/><ellipse class="m" cx="1.457" cy="0.918" rx="1.457" ry="0.918" transform="matrix(0.254, -0.967, 0.967, 0.254, 79.125, 48.379)"/><ellipse class="n" cx="1.095" cy="0.688" rx="1.095" ry="0.688" transform="translate(76.772 48.337) rotate(-75.548)"/><ellipse class="o" cx="1.093" cy="0.687" rx="1.093" ry="0.687" transform="translate(81.609 50.931) rotate(-19.4)"/><path class="p" d="M374.685,290.536a5.28,5.28,0,0,1-.1,2,1.183,1.183,0,0,1-2.188.189c-.546-.86-1.153-.874-1.153-.874a1.561,1.561,0,0,1-1.559-.811c-.574-.982.5-1.757.5-1.757a3.477,3.477,0,0,1,2.79-.376C374.754,289.307,374.685,290.536,374.685,290.536Z" transform="translate(-293.545 -239.631)"/><ellipse class="q" cx="0.918" cy="1.459" rx="0.918" ry="1.459" transform="translate(11.868 48.402) rotate(-50.77)"/><ellipse class="r" cx="0.918" cy="1.457" rx="0.918" ry="1.457" transform="matrix(0.967, -0.254, 0.254, 0.967, 14.395, 46.031)"/><ellipse class="s" cx="0.688" cy="1.095" rx="0.688" ry="1.095" transform="translate(17.063 47.33) rotate(-14.452)"/><ellipse class="t" cx="0.687" cy="1.093" rx="0.687" ry="1.093" transform="translate(11.915 51.504) rotate(-70.6)"/><path class="u" d="M104.449,290.536a5.279,5.279,0,0,0,.1,2,1.183,1.183,0,0,0,2.188.189c.546-.86,1.153-.874,1.153-.874a1.561,1.561,0,0,0,1.559-.811c.574-.982-.5-1.757-.5-1.757a3.477,3.477,0,0,0-2.79-.376C104.38,289.307,104.449,290.536,104.449,290.536Z" transform="translate(-89.548 -239.631)"/><path class="v" d="M343.953,177.916a3.868,3.868,0,0,1-.883.1,3.952,3.952,0,0,1-3.949-3.943,3.865,3.865,0,0,1,.173-1.153,7,7,0,0,1,2.227,1.026,5.2,5.2,0,0,1,1.319,1.4c.115.189.219.376.327.563s.141.348.231.514a5.15,5.15,0,0,1,.231.528C343.745,177.264,343.851,177.591,343.953,177.916Z" transform="translate(-270.155 -150.406)"/><path class="v" d="M349.552,162.09l-.03.014h-.032Z" transform="translate(-278.134 -142.063)"/><path class="v" d="M360.616,194.83c-.083.023-.159.046-.231.065l-.025-.016h.023Z" transform="translate(-286.498 -167.273)"/><path class="v" d="M345.159,176.592l-.037.012a2.131,2.131,0,0,1-.217.06c-.053-.339-.125-.676-.207-1.01-.048-.191-.1-.383-.166-.565s-.157-.357-.231-.537v-.012c-.113-.194-.231-.39-.339-.579a5.076,5.076,0,0,0-.4-.544,5.3,5.3,0,0,0-.989-.922,7.148,7.148,0,0,0-2.294-1.063h0c.014-.041.028-.083.044-.122h0a5.852,5.852,0,0,1,1.844.491,5.036,5.036,0,0,1,1.614,1.19,4.8,4.8,0,0,1,.98,1.741A6.24,6.24,0,0,1,345.159,176.592Z" transform="translate(-271.048 -149.166)"/><path class="v" d="M347.8,169.264a.818.818,0,0,1-.048.074,3.954,3.954,0,0,1-2.02,1.492,5.8,5.8,0,0,0-.154-1.937,5.021,5.021,0,0,0-1.035-1.844,5.28,5.28,0,0,0-1.7-1.252,5.872,5.872,0,0,0-1.844-.5,3.882,3.882,0,0,1,1.275-1.464,7.67,7.67,0,0,1,2.714.943,4.95,4.95,0,0,1,1.13.922,4.836,4.836,0,0,1,.461.57c.134.2.249.417.371.622v.014l.258.6c.095.208.178.41.254.622C347.589,168.5,347.7,168.877,347.8,169.264Z" transform="translate(-271.602 -143.408)"/><path class="v" d="M353.391,167.636c-.035.067-.072.136-.111.2-.014.023-.028.046-.044.069-.051-.376-.122-.749-.21-1.12-.055-.231-.115-.445-.187-.659s-.184-.417-.272-.629v-.014c-.131-.214-.247-.436-.387-.65a5.475,5.475,0,0,0-.477-.6,5.219,5.219,0,0,0-1.19-.966,7.561,7.561,0,0,0-2.513-.922,3.428,3.428,0,0,1,.383-.182,6.055,6.055,0,0,1,2.008.533,4.842,4.842,0,0,1,2.273,2.128,4.291,4.291,0,0,1,.231.477c.062.164.115.33.177.5A6.121,6.121,0,0,1,353.391,167.636Z" transform="translate(-276.988 -142.121)"/><path class="v" d="M356.62,166.519a6.089,6.089,0,0,0-.134-1.826,2.765,2.765,0,0,0-.173-.528,4.81,4.81,0,0,0-.231-.5,5.073,5.073,0,0,0-2.393-2.243,6.076,6.076,0,0,0-1.549-.484,4,4,0,0,1,.952-.113,3.947,3.947,0,0,1,3.947,3.943A3.907,3.907,0,0,1,356.62,166.519Z" transform="translate(-280.174 -141.089)"/><path class="b" d="M341.365,162.084h.032l.03-.014Zm2.52,7.578h-.023l.025.016h-.039l.023.014.256-.088Zm-4.793-5.388v0Zm-.161.088.145-.367a3.286,3.286,0,0,0-.145.364Z" transform="translate(-270.009 -142.053)"/><path class="v" d="M360.32,195v.021h.021Z" transform="translate(-286.467 -167.404)"/><path class="b" d="M342.154,159.66a4.2,4.2,0,0,0-1.6.311,4.106,4.106,0,0,0-.756.4,4.168,4.168,0,0,0-1.494,1.771l-.145.367a4.13,4.13,0,0,0-.231,1.358,4.226,4.226,0,0,0,5.188,4.1c.092-.021.18-.046.272-.074a4.247,4.247,0,0,0,2.213-1.614c.053-.076.106-.154.152-.231a4.212,4.212,0,0,0-3.608-6.389Zm3.378,6.253c-.014.023-.028.046-.044.069-.051-.376-.122-.749-.21-1.121-.055-.231-.115-.445-.187-.659s-.184-.417-.272-.629v-.014c-.131-.214-.247-.436-.387-.65a5.47,5.47,0,0,0-.477-.6,5.217,5.217,0,0,0-1.19-.966,7.559,7.559,0,0,0-2.513-.922,3.423,3.423,0,0,1,.383-.182h.03l-.03.014a6.055,6.055,0,0,1,2.008.533,4.842,4.842,0,0,1,2.273,2.128,4.292,4.292,0,0,1,.231.477c.062.164.115.33.178.5a6.122,6.122,0,0,1,.334,1.844A.882.882,0,0,0,345.532,165.913Zm-7.023-3.569h0a5.851,5.851,0,0,1,1.844.491,5.036,5.036,0,0,1,1.614,1.19,4.8,4.8,0,0,1,.98,1.741,6.24,6.24,0,0,1,.387,1.863l-.037.012a2.135,2.135,0,0,1-.217.06c-.053-.339-.125-.676-.208-1.01-.048-.191-.1-.383-.166-.565s-.157-.357-.231-.537v-.012c-.113-.194-.231-.39-.339-.579a5.069,5.069,0,0,0-.4-.544,5.3,5.3,0,0,0-.989-.922,7.147,7.147,0,0,0-2.294-1.063h0A1.339,1.339,0,0,0,338.509,162.344Zm3.645,5.464a3.952,3.952,0,0,1-3.949-3.943,3.866,3.866,0,0,1,.173-1.153,7,7,0,0,1,2.227,1.026,5.2,5.2,0,0,1,1.319,1.4c.115.189.219.376.327.563s.141.348.231.514a5.14,5.14,0,0,1,.231.528c.125.314.231.641.332.966A3.868,3.868,0,0,1,342.154,167.808Zm.948.044-.023-.014h.018v-.021h.023l.242-.044Zm2.289-1.727a3.954,3.954,0,0,1-2.02,1.492,5.793,5.793,0,0,0-.154-1.937,5.021,5.021,0,0,0-1.035-1.844,5.281,5.281,0,0,0-1.7-1.252,5.873,5.873,0,0,0-1.844-.5,3.883,3.883,0,0,1,1.275-1.464,7.671,7.671,0,0,1,2.714.943,4.951,4.951,0,0,1,1.13.922,4.843,4.843,0,0,1,.461.569c.134.2.249.417.371.623v.014l.258.6c.095.208.177.41.254.623.136.369.244.749.348,1.137a.822.822,0,0,1-.058.081Zm.3-.5a6.093,6.093,0,0,0-.134-1.826,2.767,2.767,0,0,0-.173-.528,4.8,4.8,0,0,0-.231-.5,5.072,5.072,0,0,0-2.393-2.243,6.075,6.075,0,0,0-1.549-.484,4,4,0,0,1,.952-.113,3.947,3.947,0,0,1,3.947,3.943,3.906,3.906,0,0,1-.42,1.762Z" transform="translate(-269.24 -140.197)"/><path class="c" d="M345.159,176.592l-.037.012a2.131,2.131,0,0,1-.217.06c-.053-.339-.125-.676-.207-1.01-.048-.191-.1-.383-.166-.565s-.157-.357-.231-.537v-.012c-.113-.194-.231-.39-.339-.579a5.076,5.076,0,0,0-.4-.544,5.3,5.3,0,0,0-.989-.922,7.148,7.148,0,0,0-2.294-1.063h0c.014-.041.028-.083.044-.122h0a5.852,5.852,0,0,1,1.844.491,5.036,5.036,0,0,1,1.614,1.19,4.8,4.8,0,0,1,.98,1.741A6.24,6.24,0,0,1,345.159,176.592Z" transform="translate(-271.048 -149.166)"/><path class="c" d="M360.631,194.83c-.083.023-.159.046-.231.065h-.021v-.021h.023Z" transform="translate(-286.514 -167.273)"/><path class="b" d="M344.885,176.749v.021h-.039l.023.014.256-.088Zm-4.611-5.469c-.016.039-.03.081-.044.122h0l.048-.122Z" transform="translate(-271.009 -149.143)"/><path class="c" d="M349.552,162.09l-.03.014h-.032Z" transform="translate(-278.134 -142.063)"/><path class="c" d="M353.391,167.636c-.035.067-.072.136-.111.2-.014.023-.028.046-.044.069-.051-.376-.122-.749-.21-1.12-.055-.231-.115-.445-.187-.659s-.184-.417-.272-.629v-.014c-.131-.214-.247-.436-.387-.65a5.475,5.475,0,0,0-.477-.6,5.219,5.219,0,0,0-1.19-.966,7.561,7.561,0,0,0-2.513-.922,3.428,3.428,0,0,1,.383-.182,6.055,6.055,0,0,1,2.008.533,4.842,4.842,0,0,1,2.273,2.128,4.291,4.291,0,0,1,.231.477c.062.164.115.33.177.5A6.121,6.121,0,0,1,353.391,167.636Z" transform="translate(-276.988 -142.121)"/></svg>