<svg xmlns="http://www.w3.org/2000/svg" xmlns:xlink="http://www.w3.org/1999/xlink" width="340.8" height="80" viewBox="0 0 340.8 80"><defs><style>.a{fill:none;}.b{clip-path:url(#a);}.c{fill:#000438;}.d{fill:#fff;}.e{fill:#c3c5c5;}.f{clip-path:url(#b);}.g{fill:url(#c);}.h{clip-path:url(#d);}.i{fill:url(#e);}.j{clip-path:url(#f);}.k{fill:url(#g);}.l{clip-path:url(#h);}.m{fill:url(#i);}.n{clip-path:url(#j);}.o{fill:url(#k);}.p{clip-path:url(#l);}.q{fill:url(#m);}.r{clip-path:url(#n);}.s{fill:url(#o);}.t{clip-path:url(#p);}.u{fill:url(#q);}.v{clip-path:url(#r);}.w{fill:url(#s);}.x{clip-path:url(#t);}.y{fill:url(#u);}</style><clipPath id="a"><rect class="a" width="340.8" height="80"/></clipPath><clipPath id="b"><path class="a" d="M354.547,39.65c-2.164,1.77-3.016,4.306-1.9,5.665s3.771,1.026,5.935-.744,3.015-4.306,1.9-5.665a2.539,2.539,0,0,0-2.036-.836,6.457,6.457,0,0,0-3.9,1.58" transform="translate(-352.156 -38.07)"/></clipPath><linearGradient id="c" x1="-27.929" y1="5.625" x2="-27.85" y2="5.625" gradientUnits="objectBoundingBox"><stop offset="0" stop-color="#05d1c7"/><stop offset="1" stop-color="#77fd86"/></linearGradient><clipPath id="d"><path class="a" d="M344.745,34.934c-.709,2.7.1,5.254,1.8,5.7s3.654-1.386,4.362-4.089-.1-5.254-1.8-5.7a2.053,2.053,0,0,0-.521-.066c-1.562,0-3.206,1.725-3.842,4.155" transform="translate(-344.487 -30.779)"/></clipPath><linearGradient id="e" x1="-36.313" y1="5.266" x2="-36.208" y2="5.266" xlink:href="#c"/><clipPath id="f"><path class="a" d="M334.787,38.617c-.53,2.026.073,3.938,1.348,4.272s2.738-1.039,3.27-3.065-.073-3.938-1.348-4.271a1.507,1.507,0,0,0-.39-.05c-1.17,0-2.4,1.293-2.879,3.114" transform="translate(-334.594 -35.503)"/></clipPath><linearGradient id="g" x1="-47.073" y1="6.536" x2="-46.932" y2="6.536" xlink:href="#c"/><clipPath id="h"><path class="a" d="M357.712,51.53c-1.977.7-3.223,2.268-2.785,3.51s2.4,1.682,4.374.986,3.223-2.269,2.785-3.51a2.488,2.488,0,0,0-2.522-1.316,5.6,5.6,0,0,0-1.852.331" transform="translate(-354.839 -51.199)"/></clipPath><linearGradient id="i" x1="-35.281" y1="6.862" x2="-35.182" y2="6.862" xlink:href="#c"/><clipPath id="j"><path class="a" d="M331.881,47.2s-3.73,2.687-1.741,6.1a5.432,5.432,0,0,0,5.412,2.815s2.073.046,3.967,3.034c2.4,3.79,6.5,2.318,7.59-.661.943-2.584.342-6.932.342-6.932s.283-4.264-5.89-5.657a15.715,15.715,0,0,0-3.458-.4,10.773,10.773,0,0,0-6.222,1.7" transform="translate(-329.556 -45.499)"/></clipPath><linearGradient id="k" x1="-13.177" y1="2.434" x2="-13.137" y2="2.434" xlink:href="#c"/><clipPath id="l"><path class="a" d="M53.873,38.906c-1.114,1.359-.262,3.9,1.9,5.665s4.822,2.1,5.935.744.263-3.9-1.9-5.665a6.453,6.453,0,0,0-3.9-1.58,2.541,2.541,0,0,0-2.036.836" transform="translate(-53.383 -38.07)"/></clipPath><linearGradient id="m" x1="-4.181" y1="5.625" x2="-4.101" y2="5.625" xlink:href="#c"/><clipPath id="n"><path class="a" d="M65.784,30.845c-1.7.445-2.506,3-1.8,5.7s2.662,4.534,4.362,4.089,2.506-3,1.8-5.7c-.637-2.43-2.28-4.155-3.842-4.155a2.051,2.051,0,0,0-.52.066" transform="translate(-63.729 -30.779)"/></clipPath><linearGradient id="o" x1="-6.669" y1="5.266" x2="-6.564" y2="5.266" xlink:href="#c"/><clipPath id="p"><path class="a" d="M77.252,35.553c-1.275.333-1.878,2.246-1.347,4.271s1.994,3.4,3.27,3.065,1.878-2.246,1.348-4.272c-.478-1.822-1.71-3.114-2.88-3.114a1.5,1.5,0,0,0-.39.05" transform="translate(-75.712 -35.503)"/></clipPath><linearGradient id="q" x1="-10.606" y1="6.536" x2="-10.465" y2="6.536" xlink:href="#c"/><clipPath id="r"><path class="a" d="M52.64,52.515c-.438,1.242.808,2.813,2.785,3.51s3.934.256,4.374-.986-.807-2.813-2.785-3.51a5.6,5.6,0,0,0-1.852-.331,2.487,2.487,0,0,0-2.522,1.316" transform="translate(-52.552 -51.199)"/></clipPath><linearGradient id="s" x1="-5.188" y1="6.862" x2="-5.088" y2="6.862" xlink:href="#c"/><clipPath id="t"><path class="a" d="M70.476,45.9c-6.172,1.393-5.89,5.657-5.89,5.657s-.6,4.348.343,6.932c1.087,2.979,5.187,4.451,7.59.661,1.894-2.988,3.967-3.034,3.967-3.034A5.433,5.433,0,0,0,81.9,53.3c1.989-3.41-1.741-6.1-1.741-6.1a10.777,10.777,0,0,0-6.223-1.7,15.722,15.722,0,0,0-3.459.4" transform="translate(-64.398 -45.499)"/></clipPath><linearGradient id="u" x1="-2.568" y1="2.434" x2="-2.528" y2="2.434" xlink:href="#c"/></defs><g transform="translate(0 0)"><g class="b"><path class="c" d="M330.238,80A1022.966,1022.966,0,0,0,10.562,80Q5.28,46.7,0,13.394a1090.579,1090.579,0,0,1,340.8,0L330.238,80" transform="translate(0 0)"/><path class="d" d="M103.265,17.69q.566-.1,1.259-.222,1.2-.153,3.35-.441l1.206-.091a45.36,45.36,0,0,1,5.868-.032,17.912,17.912,0,0,1,5.953,1.345,13.378,13.378,0,0,1,4.957,3.632,13.4,13.4,0,0,1,2.836,6.866c0,.02,0,.041,0,.061a16.566,16.566,0,0,1-.494,5.558,12.461,12.461,0,0,1-1.921,3.99,11.008,11.008,0,0,1-2.826,2.7,15.662,15.662,0,0,1-3.194,1.62,17.708,17.708,0,0,1-3.116.843q-1.507.254-2.5.326l-1.113.08a1.388,1.388,0,0,1-.437-.028q.909,8.176,1.81,16.353-4.279.521-8.552,1.078Q104.8,39.509,103.265,17.69m9.822,20.07a25.227,25.227,0,0,0,2.6-.368,10.726,10.726,0,0,0,3.147-1.117,7.6,7.6,0,0,0,2.6-2.307,5.93,5.93,0,0,0,.91-3.936c-.009-.14-.017-.28-.026-.419a5.311,5.311,0,0,0-.707-2.179,5.835,5.835,0,0,0-1.43-1.593,9.12,9.12,0,0,0-1.876-1.108A15.681,15.681,0,0,0,116.267,24a19.858,19.858,0,0,0-5.488-.511q.721,7.167,1.437,14.336l.871-.064" transform="translate(-19.473 -3.174)"/><path class="d" d="M136.77,15.679q9.864-.755,19.741-1.327.135,3.657.269,7.316-6.7.035-13.4.156.478,5.835.953,11.669,4.572-.585,9.152-1.129l.285,7.074q-4.379.117-8.759.27l.618,12.705q6.161-.991,12.34-1.908.447,3.767.888,7.534-10.264.731-20.506,1.665-.807-22.012-1.578-44.026" transform="translate(-25.791 -2.707)"/><path class="d" d="M165.725,14.224q.571-.078,1.267-.162,1.206-.1,3.365-.282l1.208-.035a45.377,45.377,0,0,1,5.86.243,17.9,17.9,0,0,1,5.879,1.624,13.355,13.355,0,0,1,4.779,3.861,13.4,13.4,0,0,1,2.508,6.992c0,.02,0,.041,0,.06a16.572,16.572,0,0,1-.755,5.53,12.47,12.47,0,0,1-2.1,3.895,11.012,11.012,0,0,1-2.95,2.564,15.67,15.67,0,0,1-3.265,1.468,17.719,17.719,0,0,1-3.15.7q-1.517.184-2.507.209l-1.116.028a1.357,1.357,0,0,1-.435-.049q.523,8.21,1.038,16.42-4.3.319-8.589.674-.526-21.867-1.033-43.734m8.861,20.51a25.269,25.269,0,0,0,2.614-.245,10.734,10.734,0,0,0,3.194-.968A7.6,7.6,0,0,0,183.1,31.34a5.939,5.939,0,0,0,1.094-3.89c0-.14,0-.28-.006-.42a5.316,5.316,0,0,0-.6-2.21,5.806,5.806,0,0,0-1.353-1.658,9.13,9.13,0,0,0-1.821-1.2,15.772,15.772,0,0,0-2.007-.828,19.8,19.8,0,0,0-5.455-.768q.383,7.193.76,14.387l.873-.023" transform="translate(-31.251 -2.59)"/><path class="d" d="M199.15,13.921q9.884-.29,19.778-.4l-.075,7.32q-6.694-.277-13.393-.473.2,5.849.4,11.7,4.595-.369,9.194-.7-.024,3.54-.049,7.08-4.379-.089-8.76-.142.01,6.36.019,12.721,6.2-.7,12.413-1.326.268,3.784.531,7.567-10.285.248-20.557.7.231-22.025.5-44.051" transform="translate(-37.46 -2.551)"/><path class="d" d="M234.935,20.1q-3.668.077-7.335.178.3-3.326.6-6.653,11.011-.658,22.052-1.092.1,3.516.2,7.033-3.9.195-7.8.419.086,18.79.131,37.581-4.4.026-8.79.088.467-18.776.941-37.552" transform="translate(-42.919 -2.363)"/><path class="d" d="M265.423,59a7.465,7.465,0,0,1-5.4-2.453,16.524,16.524,0,0,1-3.311-5.621,33.179,33.179,0,0,1-1.69-7.055,47.593,47.593,0,0,1-.448-6.8q.075-1.288.152-2.577a54.368,54.368,0,0,1,.752-6.367,25.16,25.16,0,0,1,1.891-6.207,12.932,12.932,0,0,1,3.537-4.672,8.422,8.422,0,0,1,5.607-1.805,8.555,8.555,0,0,1,4.267,1.281,11.515,11.515,0,0,1,3.211,3.074,17.959,17.959,0,0,1,2.241,4.325,34.6,34.6,0,0,1,1.395,5.005,40.46,40.46,0,0,1,.725,9.927l-.041.717a35.084,35.084,0,0,1-1.056,6.583,26.685,26.685,0,0,1-2.448,6.325,14.871,14.871,0,0,1-3.9,4.663A8.064,8.064,0,0,1,265.423,59m.341-8.814a2.709,2.709,0,0,0,2.2-.918,7.4,7.4,0,0,0,1.481-2.543,21,21,0,0,0,.91-3.379q.336-1.816.543-3.428.1-1.436.206-2.874.084-1.677-.009-3.574a18.665,18.665,0,0,0-.485-3.508,7.544,7.544,0,0,0-1.16-2.67,2.541,2.541,0,0,0-2.026-1.117,2.769,2.769,0,0,0-2.212.862,6.662,6.662,0,0,0-1.423,2.372,16.238,16.238,0,0,0-.8,3.268q-.264,1.822-.4,3.556l-.173,2.635q-.067,1.619-.054,3.542a21.488,21.488,0,0,0,.312,3.617,8.482,8.482,0,0,0,1.017,2.9,2.368,2.368,0,0,0,2.01,1.261l.062,0" transform="translate(-48.005 -2.912)"/><path class="d" d="M293.474,60.911a11.019,11.019,0,0,1-5.058-1.711,17.052,17.052,0,0,1-4.83-4.858q2.022-3.64,4.071-7.273c2.333,2.347,4.307,3.577,5.947,3.687q2.641.178,3.427-3.074.1-.534.2-1.069a3.313,3.313,0,0,0-.7-2.454,9.005,9.005,0,0,0-2.058-1.765q-1.252-.807-2.718-1.743a13.488,13.488,0,0,1-2.781-2.4,12.376,12.376,0,0,1-2.214-3.71,16.032,16.032,0,0,1-.953-5.676L285.8,27.9a11.833,11.833,0,0,1,1.076-4.354,11.279,11.279,0,0,1,2.459-3.46,10.658,10.658,0,0,1,3.51-2.217,9.683,9.683,0,0,1,4.215-.624,11.976,11.976,0,0,1,5.352,1.792,17.849,17.849,0,0,1,5.148,5.053q-3.02,2.5-6.011,5.021a8.2,8.2,0,0,0-2.149-2.169,5.04,5.04,0,0,0-2.5-.926,3.41,3.41,0,0,0-2.025.5,4,4,0,0,0-1.547,1.912,7.137,7.137,0,0,0-.591,2.307,3.821,3.821,0,0,0,.681,2.57,8.254,8.254,0,0,0,2.034,1.94,28.865,28.865,0,0,0,2.826,1.7,22.852,22.852,0,0,1,2.993,1.9,14.511,14.511,0,0,1,2.562,2.479,7.774,7.774,0,0,1,1.543,3.429,15.828,15.828,0,0,1,.237,4.11,13.944,13.944,0,0,1-1.278,4.9,13.73,13.73,0,0,1-2.73,3.915,11.572,11.572,0,0,1-3.772,2.521,9.621,9.621,0,0,1-4.365.719" transform="translate(-53.476 -3.249)"/><path class="e" d="M105.369,47.235q.691,9.794,1.382,19.572,4.277-.561,8.553-1.078-.886-8.176-1.814-16.351a1.46,1.46,0,0,0,.446.028l1.108-.086c.662-.043,1.5-.158,2.506-.316a18.7,18.7,0,0,0,3.109-.849,15.989,15.989,0,0,0,3.2-1.624,7.369,7.369,0,0,0,.878-.647q-9.7.583-19.366,1.352" transform="translate(-19.87 -8.654)"/><path class="e" d="M158.167,56.185q-6.177.927-12.339,1.912c-.2-4.242-.417-8.47-.619-12.713,2.923-.1,5.832-.187,8.755-.273-.015-.216-.015-.432-.029-.647-5.37.216-10.741.46-16.112.763q.346,10.073.721,20.161c6.839-.633,13.664-1.179,20.517-1.668-.3-2.516-.59-5.018-.893-7.535" transform="translate(-25.989 -8.387)"/><path class="e" d="M166.426,44.078q.237,9.772.461,19.515,4.3-.346,8.6-.676c-.346-5.465-.691-10.944-1.036-16.409a1.79,1.79,0,0,0,.432.043c.374-.014.749-.014,1.108-.028.662-.015,1.5-.086,2.519-.2a17.727,17.727,0,0,0,3.139-.705,14.578,14.578,0,0,0,3.268-1.466c.273-.158.547-.331.806-.518q-9.653.107-19.293.445" transform="translate(-31.383 -8.23)"/><path class="e" d="M218.678,55.351q-6.22.626-12.411,1.323c-.015-4.228-.015-8.471-.029-12.713,2.923.028,5.846.086,8.768.144v-.6q-8.077-.066-16.126,0-.13,10.074-.23,20.118,10.28-.453,20.561-.7c-.173-2.517-.36-5.034-.533-7.565" transform="translate(-37.46 -8.199)"/><path class="e" d="M244.2,43.922c-2.75-.1-5.486-.158-8.221-.2q-.259,9.9-.489,19.816c2.923-.043,5.86-.072,8.783-.086q-.022-9.772-.072-19.529" transform="translate(-44.406 -8.247)"/><path class="e" d="M270.928,44.864c0,.158-.015.316-.029.475-.129,1.078-.316,2.229-.532,3.437a21.076,21.076,0,0,1-.922,3.379,7.486,7.486,0,0,1-1.469,2.545,2.721,2.721,0,0,1-2.2.906h-.058a2.363,2.363,0,0,1-2.016-1.251,8.641,8.641,0,0,1-1.022-2.906,20.4,20.4,0,0,1-.3-3.609c-.015-1.208,0-2.329.043-3.351-2.606-.1-5.2-.2-7.8-.273a47.867,47.867,0,0,0,.417,5.077,34.234,34.234,0,0,0,1.685,7.061,16.782,16.782,0,0,0,3.311,5.623,7.483,7.483,0,0,0,5.4,2.445,8.032,8.032,0,0,0,5.5-1.654,15.144,15.144,0,0,0,3.888-4.659,26.165,26.165,0,0,0,2.447-6.328,34.953,34.953,0,0,0,1.066-6.528c-2.477-.144-4.939-.273-7.4-.389" transform="translate(-48.013 -8.34)"/><path class="e" d="M305.39,50.191a7.744,7.744,0,0,0-1.454-3.293q-6.113-.453-12.21-.819c.014,0,.014.015.028.015.979.633,1.887,1.208,2.721,1.74a9.383,9.383,0,0,1,2.059,1.769,3.3,3.3,0,0,1,.691,2.459c-.058.345-.13.705-.187,1.065-.532,2.171-1.67,3.192-3.427,3.077-1.642-.114-3.614-1.337-5.961-3.7-1.353,2.431-2.721,4.846-4.06,7.277a17,17,0,0,0,4.824,4.86,11.073,11.073,0,0,0,5.054,1.711,9.726,9.726,0,0,0,4.377-.719,11.959,11.959,0,0,0,3.772-2.516,14.124,14.124,0,0,0,4-8.816,16.068,16.068,0,0,0-.23-4.113" transform="translate(-53.477 -8.691)"/></g></g><g transform="translate(286.525 30.939)"><g class="f"><rect class="g" width="10.065" height="8.604" transform="translate(-0.625 0)"/></g></g><g transform="translate(280.39 25.024)"><g class="h"><rect class="i" width="7.577" height="10.299" transform="translate(-0.451 0)"/></g></g><g transform="translate(271.557 28.849)"><g class="j"><rect class="k" width="5.679" height="7.719" transform="translate(-0.338 0)"/></g></g><g transform="translate(288.671 41.583)"><g class="l"><rect class="m" width="8.036" height="5.523" transform="translate(-0.351 0)"/></g></g><g transform="translate(267.626 37.048)"><g class="n"><rect class="o" width="19.902" height="17.44" transform="translate(-1.405 0)"/></g></g><g transform="translate(42.706 30.939)"><g class="p"><rect class="q" width="10.066" height="8.604" transform="translate(-0.625 0)"/></g></g><g transform="translate(50.983 25.024)"><g class="r"><rect class="s" width="7.577" height="10.299" transform="translate(-0.451 0)"/></g></g><g transform="translate(60.569 28.849)"><g class="t"><rect class="u" width="5.679" height="7.719" transform="translate(-0.338 0)"/></g></g><g transform="translate(42.042 41.583)"><g class="v"><rect class="w" width="8.036" height="5.523" transform="translate(-0.351 0)"/></g></g><g transform="translate(52.296 37.048)"><g class="x"><rect class="y" width="19.902" height="17.44" transform="translate(-0.412 0)"/></g></g></svg>