<svg xmlns="http://www.w3.org/2000/svg" width="120.003" height="120" viewBox="0 0 120.003 120"><defs><style>.a{fill:#2cd366;}</style></defs><path class="a" d="M7.628-27.163c19.51,0,37.24,31.353,37.24,48.129,0,9.814-2.471,20.153-17.2,23.647-6.991,1.579-15.637-4.935-22.793-4.935-9.121,0-16.364,10.31-29.351,3.755-4-2.919-15.973-10.925-2.612-40.922C-15.966-19.953-5.81-27.163,7.628-27.163Z" transform="translate(50.936 74.386)"/><path class="a" d="M.592-30.706c7.332,0,16.026,14.432,16.026,23.7S10.674,9.766,3.342,9.766C-.441,9.766-8.271,6.1-11.1-2.576-13.725-10.646-14.217-31.934.592-30.706Z" transform="translate(12.533 62.587)"/><path class="a" d="M6.283-25.683c-7.332,0-18.817,13.285-18.817,22.55S-6.59,13.642.742,13.642c3.783,0,13.768.052,18.416-15.007C21.786-9.436,21.093-26.912,6.283-25.683Z" transform="translate(99.655 62.797)"/><path class="a" d="M14.589.076c8.277.106,18.281,16.317,18.4,26.643S26.5,45.33,18.222,45.224C13.951,45.17,5.064,40.977,1.76,31.261-1.312,22.227-2.146-1.508,14.589.076Z" transform="translate(28.441 0) rotate(8)"/><path class="a" d="M14.589,45.15c8.277-.106,19.426-17.4,19.547-27.727S26.5-.1,18.222,0C13.951.056,5.064,4.249,1.76,13.965-1.312,23-2.146,46.733,14.589,45.15Z" transform="translate(98.68 46.372) rotate(172)"/></svg>