<svg xmlns="http://www.w3.org/2000/svg" width="40" height="40" viewBox="0 0 40 40"><defs><style>.a{fill:#77fd86;}</style></defs><path class="a" d="M37.812,27.812a2.172,2.172,0,0,1,1.51.626A2.039,2.039,0,0,1,40,30v7.812A2.325,2.325,0,0,1,37.812,40,37.179,37.179,0,0,1,18.8,34.948,37.316,37.316,0,0,1,5.052,21.2,37.179,37.179,0,0,1,0,2.188,2.091,2.091,0,0,1,.677.678,2.1,2.1,0,0,1,2.188,0H10a2.037,2.037,0,0,1,1.562.677,2.179,2.179,0,0,1,.626,1.51,24.87,24.87,0,0,0,1.25,7.917,2.131,2.131,0,0,1-.521,2.292l-4.9,4.9A32.679,32.679,0,0,0,22.709,31.979l4.9-4.9a2.131,2.131,0,0,1,2.292-.521,24.87,24.87,0,0,0,7.917,1.25ZM20,0H40V15.521H26.667L20,22.188Z"/></svg>