<svg xmlns="http://www.w3.org/2000/svg" width="60" height="56" viewBox="0 0 60 56"><defs><style>.a{fill:#05d1c7;}</style></defs><path class="a" d="M31.8,16.949a12.4,12.4,0,0,1-.685,4.138,8.056,8.056,0,0,1-2.272,3.372,5.481,5.481,0,0,1-3.786,1.422,7.11,7.11,0,0,1-4.976-2.1,13.051,13.051,0,0,1-3.317-4.94,15.449,15.449,0,0,1-1.082-5.505A12.4,12.4,0,0,1,16.363,9.2a8.056,8.056,0,0,1,2.272-3.372A5.481,5.481,0,0,1,22.42,4.407a7.088,7.088,0,0,1,4.994,2.1,13.178,13.178,0,0,1,3.3,4.922A15.39,15.39,0,0,1,31.8,16.949ZM19.464,34.558a8.577,8.577,0,0,1-1.514,5.068,4.939,4.939,0,0,1-4.291,2.151,7.7,7.7,0,0,1-5.1-2.023A14.224,14.224,0,0,1,3.67,29.344a8.66,8.66,0,0,1,1.514-5.086,4.926,4.926,0,0,1,4.291-2.169,7.7,7.7,0,0,1,5.1,2.023A13.553,13.553,0,0,1,18.2,29a13.733,13.733,0,0,1,1.262,5.56Zm14.207-.984q4.255,0,9.195,3.555a32.294,32.294,0,0,1,8.257,8.641q3.317,5.086,3.317,9.279a5.723,5.723,0,0,1-.613,2.789,3.769,3.769,0,0,1-1.749,1.641,9.061,9.061,0,0,1-2.326.729,16.643,16.643,0,0,1-2.74.2,20.56,20.56,0,0,1-6.761-1.641,20.43,20.43,0,0,0-6.581-1.641,22.878,22.878,0,0,0-6.941,1.622A23.124,23.124,0,0,1,19.5,60.371q-6.6,0-6.6-5.323a15.27,15.27,0,0,1,2.019-6.982,31.244,31.244,0,0,1,5.03-7.018,29.555,29.555,0,0,1,6.761-5.323,14.148,14.148,0,0,1,6.959-2.151Zm8.618-7.693A5.481,5.481,0,0,1,38.5,24.459a8.056,8.056,0,0,1-2.272-3.372,12.4,12.4,0,0,1-.685-4.138,15.39,15.39,0,0,1,1.082-5.523,13.178,13.178,0,0,1,3.3-4.922,7.088,7.088,0,0,1,4.994-2.1,5.481,5.481,0,0,1,3.786,1.422A8.056,8.056,0,0,1,50.978,9.2a12.4,12.4,0,0,1,.685,4.138,15.446,15.446,0,0,1-1.082,5.505,13.052,13.052,0,0,1-3.317,4.94,7.11,7.11,0,0,1-4.976,2.1Zm15.577-3.792a4.926,4.926,0,0,1,4.291,2.169,8.66,8.66,0,0,1,1.514,5.086,14.224,14.224,0,0,1-4.886,10.409,7.7,7.7,0,0,1-5.1,2.023,4.939,4.939,0,0,1-4.291-2.151,8.577,8.577,0,0,1-1.514-5.068A13.737,13.737,0,0,1,49.139,29a13.55,13.55,0,0,1,3.624-4.885,7.7,7.7,0,0,1,5.1-2.023Z" transform="translate(-3.67 -4.407)"/></svg>