<svg xmlns="http://www.w3.org/2000/svg" width="48.007" height="48" viewBox="0 0 48.007 48"><defs><style>.a{fill:#000438;}</style></defs><path class="a" d="M51.434,40.46c-1.992-2.046-7.651-5.876-11.359-5.876a4.03,4.03,0,0,0-2.223.586c-1.813,1.16-3.258,2.06-3.954,2.06-.382,0-.791-.341-1.691-1.119l-.149-.136a46.873,46.873,0,0,1-4-3.737l-.246-.26c-.176-.176-.328-.341-.477-.491-.846-.873-1.458-1.5-3.627-3.954l-.1-.109c-1.036-1.173-1.718-1.936-1.759-2.5-.041-.545.436-1.431,1.65-3.082,1.472-1.992,1.526-4.445.176-7.3a33.178,33.178,0,0,0-4.391-6.3l-.136-.163a5.888,5.888,0,0,0-4.624-2.455,8.177,8.177,0,0,0-4.364,1.583c-.068.041-.136.1-.2.136a8.761,8.761,0,0,0-3.792,4.527C5.4,14.4,4.881,17.672,8.6,24.477a60.792,60.792,0,0,0,10.773,14.6,65.088,65.088,0,0,0,10.636,9.055c4.827,3.491,9.464,5.5,12.709,5.5,3.014,0,5.386,0,8.768-4.077,3.545-4.282,2.073-6.9-.054-9.1Zm-1.569,7.622c-2.727,3.3-4.3,3.3-7.131,3.3-2.768,0-7.063-1.908-11.481-5.087A63.02,63.02,0,0,1,20.9,37.487,58.77,58.77,0,0,1,10.483,23.374C7.2,17.36,7.565,14.728,8.234,12.56a6.538,6.538,0,0,1,2.864-3.3c.068-.041.136-.1.219-.136a6.293,6.293,0,0,1,3.231-1.241,3.835,3.835,0,0,1,2.987,1.678l.136.163c3.477,4.255,6.191,8.017,4.144,10.8-1.445,1.949-2.209,3.274-2.087,4.637.109,1.323.995,2.318,2.331,3.819l.1.109c2.2,2.482,2.822,3.136,3.695,4.022.149.149.3.314.477.491l.246.26A53.442,53.442,0,0,0,30.7,37.733l.149.136c1.092.954,1.895,1.65,3.068,1.65,1.214,0,2.55-.764,5.087-2.385a2.053,2.053,0,0,1,1.092-.26c2.96,0,8.058,3.382,9.846,5.223,1.637,1.664,2.455,2.919-.081,5.987Z" transform="translate(-5.621 -5.632)"/></svg>