<svg xmlns="http://www.w3.org/2000/svg" width="50" height="40" viewBox="0 0 50 40"><defs><style>.a{fill:#05d1c7;}</style></defs><path class="a" d="M17.82-122.493h-.977a9.054,9.054,0,0,1-6.608-3.033,9.916,9.916,0,0,1-2.962-7.167,9.523,9.523,0,0,1,2.962-7.133,10.042,10.042,0,0,1,7.259-2.867,9.638,9.638,0,0,1,7.975,4q3.092,4,3.092,11.133a28.635,28.635,0,0,1-2.7,12.3,27.029,27.029,0,0,1-6.641,9.167q-3.939,3.4-7.129,3.4a4.393,4.393,0,0,1-3.288-1.3,4.363,4.363,0,0,1-1.27-3.167,4.644,4.644,0,0,1,2.669-4.4,19.686,19.686,0,0,0,5.4-4.533A11.249,11.249,0,0,0,17.82-122.493Zm28.646,0h-.781a9.375,9.375,0,0,1-6.738-3,9.775,9.775,0,0,1-3.027-7.2,9.5,9.5,0,0,1,2.995-7.1,10.091,10.091,0,0,1,7.292-2.9,9.667,9.667,0,0,1,8.008,3.933q3.06,3.933,3.06,11.2a28.655,28.655,0,0,1-2.7,12.433,26.8,26.8,0,0,1-6.641,9.067q-3.939,3.367-7.194,3.367a4.428,4.428,0,0,1-3.32-1.267,4.393,4.393,0,0,1-1.237-3.2,4.732,4.732,0,0,1,2.669-4.4,19.347,19.347,0,0,0,5.534-4.567A11.439,11.439,0,0,0,46.466-122.493Z" transform="translate(-7.273 142.693)"/></svg>