<svg xmlns="http://www.w3.org/2000/svg" width="16" height="16" viewBox="0 0 16 16"><defs><style>.a{fill:#000438;}</style></defs><path class="a" d="M11.751,9.588c-.2-.1-1.178-.578-1.36-.644s-.315-.1-.449.1-.514.644-.63.776-.232.149-.431.05a5.473,5.473,0,0,1-1.6-.984A5.942,5.942,0,0,1,6.174,7.513c-.116-.2-.012-.305.087-.4s.2-.231.3-.347a1.369,1.369,0,0,0,.2-.332.36.36,0,0,0-.017-.347c-.05-.1-.448-1.075-.614-1.471S5.8,4.28,5.68,4.273s-.255-.007-.382-.007a.731.731,0,0,0-.531.248,2.218,2.218,0,0,0-.7,1.653,3.846,3.846,0,0,0,.813,2.049,8.863,8.863,0,0,0,3.4,2.992,11.278,11.278,0,0,0,1.135.417,2.727,2.727,0,0,0,1.253.079,2.053,2.053,0,0,0,1.344-.942,1.637,1.637,0,0,0,.116-.942c-.05-.083-.182-.132-.382-.231M8.119,14.524h0a6.636,6.636,0,0,1-3.37-.919L4.5,13.463,2,14.117l.669-2.432-.157-.249A6.588,6.588,0,0,1,8.122,1.34a6.592,6.592,0,1,1,0,13.184m5.636-12.2a7.973,7.973,0,0,0-13.6,5.6,7.891,7.891,0,0,0,1.064,3.964L.086,16l4.223-1.1a7.99,7.99,0,0,0,3.807.965h0a7.96,7.96,0,0,0,7.967-7.929,7.862,7.862,0,0,0-2.331-5.609Z" transform="translate(-0.086)"/></svg>